<svg xmlns="http://www.w3.org/2000/svg" xmlns:xlink="http://www.w3.org/1999/xlink" width="300" height="300" viewBox="769044.1252653981 2960673.5721255327 7535.1614758800715 9033.306305004284" preserveAspectRatio="xMinYMin meet"><g transform="matrix(1,0,0,-1,0,5930380.45055607)"><path fill-rule="evenodd" fill="#66cc99" stroke="#555555" stroke-width="60.222042033361895" opacity="0.6" d="M 769378.6921655834,2964626.314495012 L 769385.0778914541,2964646.3895507306 L 769422.7823468447,2964670.991673976 L 769447.8351161778,2964686.0564678907 L 769519.4917252362,2964729.047206506 L 769617.8001259416,2964791.4841894507 L 769636.9142190069,2964805.426663369 L 769698.0262042135,2964849.823767975 L 769713.2787844688,2964879.782233 L 769759.0290998667,2964971.1153794527 L 769774.2779260278,2965001.8027308434 L 769817.4356920719,2965070.8929459006 L 769924.6562471539,2965243.068883106 L 769981.3954275101,2965351.949428618 L 770051.5162528902,2965486.4064130634 L 770165.524769485,2965705.628670275 L 770240.9961272329,2965850.3168090284 L 770268.8257624358,2965904.3903761506 L 770272.8420704603,2965911.6988831162 L 770294.5264795274,2965951.8936775476 L 770298.53555125,2965960.6598774195 L 770335.1952904314,2966031.905523479 L 770403.438916713,2966162.710046038 L 770441.711712122,2966235.4215949327 L 770496.5711555481,2966341.014299631 L 770542.6018490642,2966429.070626855 L 770549.5589156449,2966442.5891112834 L 770566.9542598128,2966475.838698879 L 770593.4478860646,2966526.6261739135 L 770616.4619985968,2966570.836638421 L 770641.3489790112,2966618.700743422 L 770675.0693443567,2966683.008175373 L 770707.7161657065,2966745.852598965 L 770725.9124391377,2966780.928452611 L 770799.7739403397,2966921.9662388116 L 770819.3061640263,2966959.964267805 L 771079.9145467281,2967465.63542898 L 771173.2917864919,2967646.8592908233 L 771183.995497182,2967667.320879206 L 771193.8942293674,2967686.685159996 L 771214.4747655988,2967730.8841172755 L 771224.3625260592,2967752.4349462986 L 771255.6337787211,2967819.6465130746 L 771302.6753804684,2967920.4646231383 L 771349.716566667,2968021.2828356773 L 771380.9870817661,2968088.4945840687 L 771476.3328779042,2967929.350518286 L 771598.9201654196,2967725.1538057476 L 771783.8259602338,2967969.1567111164 L 771891.4383864999,2968111.46082969 L 771971.6791342497,2968217.18471919 L 772091.632755518,2968375.951263264 L 772211.8548448831,2968534.7198083103 L 772291.8225066364,2968640.4434806257 L 772504.4315374494,2968905.3646416664 L 772522.6108693779,2968889.4214396477 L 772541.8431169987,2968878.9500478357 L 772557.2936299741,2968868.459568128 L 772581.669338882,2968855.827601418 L 772603.7035910785,2968878.898148641 L 772630.0119019598,2968911.4655495435 L 772856.6774591208,2969173.1812081933 L 772970.0073758811,2969304.222101316 L 773030.1704608053,2969372.3115303516 L 773168.2477947026,2969257.4873539507 L 773145.4318735152,2969175.7387408167 L 773122.8840602487,2969094.3559482694 L 773139.0802967995,2968990.2106360644 L 773145.0729793608,2968927.1943398714 L 773132.501079157,2968902.7135775387 L 773021.9191169143,2968709.0035824627 L 772820.6965430677,2968436.8466694206 L 772562.8539541215,2968088.6037041843 L 772578.8268601447,2968081.760197118 L 772293.024986431,2967544.239161402 L 772248.9089139998,2967453.273424551 L 772198.7410768121,2967383.7787603587 L 772196.3373197168,2967378.300183937 L 772189.6791719794,2967359.316221237 L 772171.4782477915,2967325.69688794 L 772148.3486496508,2967305.1722932756 L 772144.8734692633,2967297.8661724627 L 772141.3982866704,2967290.5600521863 L 772132.3986410052,2967253.7071821094 L 772088.4695572108,2967071.634866625 L 772632.3586049825,2966736.914016232 L 773139.949977994,2966424.2520202547 L 773497.9531851113,2966204.1334551573 L 774104.3718906194,2966276.1067129225 L 774845.2413460761,2966364.8230020255 L 775609.8673869073,2966455.872863427 L 775635.787002191,2966458.922684282 L 775713.275654465,2966468.070920214 L 775738.9250896722,2966471.119455546 L 775840.3006967306,2966458.5261903405 L 776143.8840934485,2966421.4751015753 L 776244.7198410928,2966408.88080284 L 775741.211703673,2965561.8748934865 L 775690.498513341,2965494.5564368814 L 775537.4852324724,2965513.078158781 L 775506.427638948,2965510.730709374 L 775477.8902002871,2965491.2680791616 L 775444.6010342389,2965450.279443294 L 775297.4588956386,2965169.2706727535 L 775231.1744737774,2965030.079821557 L 775045.7381026,2964681.8196199834 L 774988.9064866006,2964595.156357974 L 774955.5663032234,2964563.6434066594 L 774824.3735550046,2964488.6235975325 L 774787.27671507,2964399.511454776 L 774758.1442929953,2964337.7726843953 L 774709.9339798838,2964255.5276774466 L 774648.3023681939,2964156.085518092 L 774616.2010139674,2964093.6028144807 L 774556.8722133785,2964124.274576634 L 774469.3493991345,2964173.3877167106 L 774410.2780913264,2964206.6121940017 L 774275.0661484301,2964282.4493180662 L 774158.0204637647,2964345.989587635 L 774055.3283857107,2964403.0441167504 L 773911.9929870963,2964482.850554168 L 773823.3754644692,2964535.2404300123 L 773761.8744383752,2964568.4541626275 L 773583.3144057542,2964668.491054833 L 773431.8381520361,2964755.9120480865 L 773321.2832010239,2964819.1251613647 L 773001.2965957373,2964997.52952531 L 772885.869857356,2965062.9066119343 L 772803.7815430611,2965107.315994352 L 772730.6386073232,2965145.9400191903 L 772725.2260150313,2965147.734796554 L 772668.3966111243,2965166.033403009 L 772595.1275349259,2965176.2316022813 L 772495.9436190128,2964968.0050560087 L 772377.505725354,2964719.9589053094 L 772299.2393766493,2964595.657866612 L 772289.5901928842,2964580.303147644 L 772209.4133009315,2964459.637110546 L 772143.4816526771,2964353.620282382 L 772083.1040131301,2964271.319586575 L 771928.1526928991,2964136.7946373224 L 772011.2017038912,2963955.3610491455 L 772103.8478122205,2963746.279325828 L 772160.6773002595,2963621.201160729 L 772232.5696323216,2963456.111635834 L 772365.7555378228,2963138.634921372 L 772458.7738931775,2962910.6061932147 L 772527.3196110725,2962767.0021485984 L 772606.9539681226,2962568.0609172434 L 772686.0492811054,2962369.117253825 L 772711.2247671336,2962306.5625281334 L 772808.5509662479,2962082.930244714 L 772837.7820165902,2962020.03176035 L 772922.4632168412,2961839.3387470096 L 772886.4251914322,2961805.6286298484 L 772847.69789128,2961769.3539438397 L 772841.6067010164,2961744.906282544 L 772838.2009842992,2961723.752089381 L 772827.791957885,2961698.1892847717 L 772797.2167756855,2961652.8451975137 L 772788.8863726854,2961643.692289233 L 772761.3858036399,2961631.52695626 L 772663.3056590408,2961576.366469741 L 772591.8876032233,2961538.8337184936 L 772574.0996854454,2961529.633117005 L 772530.5076190382,2961493.3344052434 L 772526.4710030258,2961490.03415443 L 772515.9768997133,2961481.2348531634 L 772495.8195375055,2961459.631727278 L 772488.57163243,2961450.1199631244 L 772480.7796187252,2961441.3343157023 L 772470.8369339854,2961430.3512375057 L 772462.2563348562,2961417.18845582 L 772455.2804538012,2961407.3136449903 L 772448.3064053208,2961397.074415505 L 772441.3305121213,2961387.1996090114 L 772437.5751079023,2961381.714212194 L 772428.7242584378,2961368.55008024 L 772392.0266580135,2961304.5897289813 L 772361.2258065939,2961250.1343483925 L 772307.9250626415,2961156.207177475 L 772273.6091647148,2961102.098638892 L 772252.6974907517,2961069.194603041 L 772239.8280325979,2961049.0861371905 L 772213.8225007951,2961008.139025718 L 772152.4171518832,2961020.9494164437 L 772089.3905698955,2961033.7518164665 L 771985.5155320764,2961055.4598377794 L 771871.9037507325,2961078.941595003 L 771694.1833773851,2961115.586394146 L 771681.8154420108,2961157.069423273 L 771657.3535694331,2961239.3080169708 L 771632.8955199122,2961320.8177990615 L 771622.1746374369,2961357.2070953995 L 771618.3186346442,2961371.7649811953 L 771615.8410820663,2961380.8633218557 L 771610.6084687263,2961400.5163342655 L 771582.314863801,2961492.5754370242 L 771566.1078059673,2961545.336643666 L 771522.5003994703,2961673.7621655464 L 771477.4731485397,2961816.0290189832 L 771432.1598359495,2961961.574411109 L 771393.4577072412,2962082.00727205 L 771373.6951105744,2962143.497178063 L 771362.9895792156,2962176.9712449014 L 771356.4045173973,2962196.981993228 L 771353.386747241,2962206.0776658803 L 771347.6341656595,2962221.7194150686 L 771341.3302592188,2962239.544991955 L 771333.6480338871,2962262.830136493 L 771321.2995513678,2962300.669177562 L 771304.2666518241,2962356.706335187 L 771292.7579956055,2962388.7187049687 L 771189.2916554511,2962708.900737226 L 771164.0425468236,2962787.127255127 L 771155.533725068,2962813.6882137507 L 771136.0480211228,2962874.0864361227 L 771101.195251599,2962981.783981994 L 771078.1409847587,2963053.461803615 L 771035.0522086471,2963187.357384011 L 770993.3384810537,2963316.522309214 L 770962.0539414585,2963413.304954231 L 770935.4372638166,2963495.169242382 L 770912.1083801985,2963567.939172089 L 770841.8560419977,2963785.518935427 L 770818.2575550973,2963858.287629023 L 770766.3242572695,2963869.691097468 L 770731.1623240858,2963877.169314742 L 770672.7356543243,2963890.3628674597 L 770601.0574002564,2963906.041776404 L 770590.5075843632,2963908.540406719 L 770571.5748528242,2963912.4551472217 L 770539.3868729025,2963919.5839898735 L 770528.566886887,2963922.0813076794 L 770507.7392792851,2963926.715558529 L 770490.969849199,2963930.276668012 L 770470.9546132386,2963934.5505515486 L 770449.5848556459,2963939.546596393 L 770432.5452612191,2963943.106408596 L 770409.0122507662,2963948.4561956674 L 770396.2992067337,2963951.3086217493 L 770389.8075944632,2963952.734167859 L 770368.4396775663,2963957.3658664227 L 770348.1543056369,2963961.638517797 L 770335.171093896,2963964.4896389693 L 770331.3831208497,2963965.5641650856 L 770298.3847432733,2963972.6893292367 L 770289.7280736417,2963974.833042294 L 770282.696109727,2963976.2559426576 L 770247.5344993621,2963983.734898329 L 770179.3710029274,2963999.0680855364 L 770169.3634434193,2964001.2051605433 L 770126.6259965152,2964010.8334082216 L 770047.376199156,2964027.934318751 L 770003.8265083581,2964037.923210591 L 769956.4925128222,2964048.257929325 L 769815.5715087652,2964079.2679988295 L 769703.8627464622,2964103.8630805016 L 769601.6213130802,2964126.318718374 L 769481.2564856112,2964153.058854863 L 769453.9395980388,2964158.755441144 L 769389.5691729635,2964557.1261180043 L 769383.7128658742,2964594.269267127 L 769378.6921655834,2964626.314495012 z" /></g></svg>